General
      Complete name : Life.Of.Brian.1979.BRRip.H264.AAC.5.1ch.Gopo.mp4
      Format : MPEG-4
      Format profile : Base Media
      Codec ID : isom
      File size : 1.55 GiB
      Duration : 1h 33mn
      Overall bit rate : 2 375 Kbps
      Encoded date : UTC 2009-12-04 19:48:40
      Tagged date : UTC 2009-12-04 19:48:40
   Video #1
      ID : 1
      Format : AVC
      Format/Info : Advanced Video Codec
      Format profile : High@L4.1
      Format settings, CABAC : Yes
      Format settings, ReFrames : 3 frames
      Codec ID : avc1
      Codec ID/Info : Advanced Video Coding
      Duration : 1h 33mn
      Bit rate mode : Variable
      Bit rate : 2 007 Kbps
      Maximum bit rate : 5 911 Kbps
      Width : 1 280 pixels
      Height : 688 pixels
      Display aspect ratio : 1.860
      Frame rate mode : Constant
      Frame rate : 23.976 fps
      Resolution : 24 bits
      Colorimetry : 4:2:0
      Scan type : Progressive
      Bits/(Pixel*Frame) : 0.095
      Stream size : 1.31 GiB (85%)
      Writing library : x264 core 79 r1354 636f98f
      Encoding settings : cabac=1 / ref=3 / deblock=1:0:0 / analyse=0x3:0x113 / me=umh / subme=8 / psy=1 / psy_rd=1.0:0.0 / mixed_ref=1 / me_range=16 / chroma_me=1 / trellis=2 / 8x8dct=1 / cqm=0 / deadzone=21,11 / chroma_qp_offset=-2 / threads=3 / nr=0 / decimate=1 / mbaff=0 / constrained_intra=0 / bframes=3 / b_pyramid=0 / b_adapt=1 / b_bias=0 / direct=3 / wpredb=1 / wpredp=2 / keyint=250 / keyint_min=25 / scenecut=40 / rc_lookahead=0 / rc=2pass / mbtree=0 / bitrate=2007 / ratetol=1.0 / qcomp=0.60 / qpmin=19 / qpmax=51 / qpstep=4 / cplxblur=20.0 / qblur=0.5 / vbv_maxrate=25000 / vbv_bufsize=9000 / ip_ratio=1.40 / pb_ratio=1.30 / aq=2:1.00
      Encoded date : UTC 2009-12-04 04:37:52
      Tagged date : UTC 2009-12-04 19:52:31
   Audio #2
      ID : 2
      Format : AAC
      Format/Info : Advanced Audio Codec
      Format version : Version 4
      Format profile : LC
      Format settings, SBR : No
      Codec ID : 40
      Duration : 1h 33mn
      Bit rate mode : Variable
      Bit rate : 364 Kbps
      Maximum bit rate : 402 Kbps
      Channel(s) : 6 channels
      Channel positions : Front: L C R, Rear: L R, LFE
      Sampling rate : 48.0 KHz
      Resolution : 16 bits
      Stream size : 244 MiB (15%)
      Encoded date : UTC 2009-12-04 19:52:01
      Tagged date : UTC 2009-12-04 19:52:31
	Sample : YES
	Subtitle : English,Romanian

PLOT

Brian is born in a stable on Christmas, right next to You Know Who. The wise men appear and begin to distribute gifts. The star moves further, so they take it all back and move on. This is how Brian's life goes. The Jews are looking for a release from the Romans, Spiritual and political decay, keep looking for signs and a group decides Brian is the Messiah. He cannot convince them he is not. He joins the Peoples' Front of Judea, one of several dozen separatist groups who actually do nothing, but really hate the Romans. While not about Jesus, it is about those who hadn't time, or interest to listen to his message. Many Political and Social comments.
Director: Terry Jones
CASTING
      
      Graham Chapman	... 	Wise Man #2 / Brian Cohen / Biggus Dickus
	John Cleese	... 	Wise Man #1 / Reg / Jewish Official / Centurion / Deadly Dirk / Arthur
	Terry Gilliam	... 	Man Even Further Forward / Revolutionary / Jailer / Blood & Thunder Prophet / Frank / Audience Member / Crucifee
	Eric Idle	... 	Mr. Cheeky / Stan (Loretta) / Harry the Haggler / Culprit Woman / Warris / Intensely Dull Youth / Jailer's Assistant / Otto / Lead Singer Crucifee
	Terry Jones	... 	Mandy Cohen / Colin / Simon the Holy Man / Bob Hoskins / Saintly Passer-by / Alarmed Crucifixion Assistant
	Michael Palin	... 	Wise Man #3 / Mr. Big Nose / Francis / Mrs. A / Ex-Leper / Announcer / Ben / Pontius Pilate / Boring Prophet / Eddie / Shoe Follower / Nisus Wettus
	Terence Bayler	... 	Gregory
	Carol Cleveland	... 	Mrs. Gregory
	Kenneth Colley	... 	Jesus
	Neil Innes	... 	A weedy Samaritan
	Charles McKeown	... 	False Prophet / Blind Man / Giggling Guard / Stig
	John Young	... 	Matthias, Son of Deuteronomy of Gath
	Gwen Taylor	... 	Mrs. Big Nose
	Sue Jones-Davies	... 	Judith
	Peter Brett

SOURCE: Life.Of.Brian.1979.720p.BluRay.x264-SiNNERS.mkv

Notes: For best performance I suggest you to use KMPlayer(find it with google) for playback
I haven't tested the movies on a PS3 or Xbox or other devices than PC because I don't own one of them but feel free to test them if you have the oportunity.
